<svg width="256" height="256" viewBox="0 0 256 256" fill="none" xmlns="http://www.w3.org/2000/svg" role="img" aria-labelledby="title desc">
  <title id="title">Daily AI Atlas logo</title>
  <desc id="desc">A dark rounded-square logo with atlas grid lines, a navigation point, and AI lettering.</desc>
  <rect width="256" height="256" rx="44" fill="#20242A"/>
  <circle cx="128" cy="128" r="86" stroke="#FFFDF8" stroke-width="10"/>
  <path d="M51 128H205" stroke="#FFFDF8" stroke-width="8" stroke-linecap="round"/>
  <path d="M128 43C151 65 164 94 164 128C164 162 151 191 128 213C105 191 92 162 92 128C92 94 105 65 128 43Z" stroke="#FFFDF8" stroke-width="8" stroke-linejoin="round"/>
  <path d="M69 77C85 91 105 99 128 99C151 99 171 91 187 77" stroke="#FFFDF8" stroke-width="7" stroke-linecap="round"/>
  <path d="M69 179C85 165 105 157 128 157C151 157 171 165 187 179" stroke="#FFFDF8" stroke-width="7" stroke-linecap="round"/>
  <path d="M174 54L151 128L226 105L174 54Z" fill="#C8792A"/>
  <circle cx="151" cy="128" r="12" fill="#FFFDF8"/>
  <path d="M72 194L91 143H107L126 194H111L108 184H90L87 194H72ZM94 171H104L99 155L94 171Z" fill="#FFFDF8"/>
  <path d="M135 194V143H150V194H135Z" fill="#FFFDF8"/>
</svg>
